<mxfile host="app.diagrams.net" modified="2022-04-30T14:52:12.330Z" agent="5.0 (Macintosh; Intel Mac OS X 10_15_7) AppleWebKit/537.36 (KHTML, like Gecko) Chrome/100.0.4896.127 Safari/537.36" etag="khr2T_MRvcd1J8CdRi0n" version="17.5.0" type="github">
  <diagram id="8smA7mRZwkchNaE0-HKt" name="第 1 页">
    <mxGraphModel dx="1426" dy="794" grid="1" gridSize="10" guides="1" tooltips="1" connect="1" arrows="1" fold="1" page="1" pageScale="1" pageWidth="827" pageHeight="1169" math="0" shadow="0">
      <root>
        <mxCell id="0" />
        <mxCell id="1" parent="0" />
        <mxCell id="unOXCObY0DmNRusK8OhL-4" value="" style="rounded=0;whiteSpace=wrap;html=1;" vertex="1" parent="1">
          <mxGeometry x="30" y="200" width="770" height="520" as="geometry" />
        </mxCell>
        <mxCell id="unOXCObY0DmNRusK8OhL-12" style="edgeStyle=orthogonalEdgeStyle;rounded=0;orthogonalLoop=1;jettySize=auto;html=1;entryX=0.5;entryY=0;entryDx=0;entryDy=0;curved=1;exitX=0.5;exitY=1;exitDx=0;exitDy=0;fillColor=#ffe6cc;strokeColor=#d79b00;strokeWidth=2;" edge="1" parent="1" source="unOXCObY0DmNRusK8OhL-1" target="unOXCObY0DmNRusK8OhL-5">
          <mxGeometry relative="1" as="geometry" />
        </mxCell>
        <mxCell id="unOXCObY0DmNRusK8OhL-1" value="Client-1&lt;br&gt;Web、IOS、Android" style="rounded=0;whiteSpace=wrap;html=1;" vertex="1" parent="1">
          <mxGeometry x="160" y="80" width="120" height="60" as="geometry" />
        </mxCell>
        <mxCell id="unOXCObY0DmNRusK8OhL-13" style="edgeStyle=orthogonalEdgeStyle;curved=1;rounded=0;orthogonalLoop=1;jettySize=auto;html=1;entryX=0.5;entryY=0;entryDx=0;entryDy=0;fillColor=#dae8fc;strokeColor=#6c8ebf;strokeWidth=2;" edge="1" parent="1" source="unOXCObY0DmNRusK8OhL-2" target="unOXCObY0DmNRusK8OhL-5">
          <mxGeometry relative="1" as="geometry" />
        </mxCell>
        <mxCell id="unOXCObY0DmNRusK8OhL-2" value="Client-2&lt;br&gt;Web、IOS、Android" style="rounded=0;whiteSpace=wrap;html=1;" vertex="1" parent="1">
          <mxGeometry x="340" y="80" width="120" height="60" as="geometry" />
        </mxCell>
        <mxCell id="unOXCObY0DmNRusK8OhL-14" style="edgeStyle=orthogonalEdgeStyle;curved=1;rounded=0;orthogonalLoop=1;jettySize=auto;html=1;entryX=0.5;entryY=0;entryDx=0;entryDy=0;exitX=0.5;exitY=1;exitDx=0;exitDy=0;fillColor=#d5e8d4;strokeColor=#82b366;strokeWidth=2;" edge="1" parent="1" source="unOXCObY0DmNRusK8OhL-3" target="unOXCObY0DmNRusK8OhL-5">
          <mxGeometry relative="1" as="geometry" />
        </mxCell>
        <mxCell id="unOXCObY0DmNRusK8OhL-3" value="Client-...&lt;br&gt;Web、IOS、Android" style="rounded=0;whiteSpace=wrap;html=1;" vertex="1" parent="1">
          <mxGeometry x="520" y="80" width="120" height="60" as="geometry" />
        </mxCell>
        <mxCell id="unOXCObY0DmNRusK8OhL-15" style="edgeStyle=orthogonalEdgeStyle;curved=1;rounded=0;orthogonalLoop=1;jettySize=auto;html=1;entryX=0.5;entryY=0;entryDx=0;entryDy=0;exitX=0.5;exitY=1;exitDx=0;exitDy=0;fillColor=#ffe6cc;strokeColor=#d79b00;strokeWidth=2;" edge="1" parent="1" source="unOXCObY0DmNRusK8OhL-5" target="unOXCObY0DmNRusK8OhL-6">
          <mxGeometry relative="1" as="geometry" />
        </mxCell>
        <mxCell id="unOXCObY0DmNRusK8OhL-16" style="edgeStyle=orthogonalEdgeStyle;curved=1;rounded=0;orthogonalLoop=1;jettySize=auto;html=1;entryX=0.5;entryY=0;entryDx=0;entryDy=0;fillColor=#dae8fc;strokeColor=#6c8ebf;strokeWidth=2;" edge="1" parent="1" source="unOXCObY0DmNRusK8OhL-5" target="unOXCObY0DmNRusK8OhL-8">
          <mxGeometry relative="1" as="geometry" />
        </mxCell>
        <mxCell id="unOXCObY0DmNRusK8OhL-17" style="edgeStyle=orthogonalEdgeStyle;curved=1;rounded=0;orthogonalLoop=1;jettySize=auto;html=1;entryX=0.5;entryY=0;entryDx=0;entryDy=0;exitX=0.5;exitY=1;exitDx=0;exitDy=0;fillColor=#d5e8d4;strokeColor=#82b366;strokeWidth=2;" edge="1" parent="1" source="unOXCObY0DmNRusK8OhL-5" target="unOXCObY0DmNRusK8OhL-7">
          <mxGeometry relative="1" as="geometry" />
        </mxCell>
        <mxCell id="unOXCObY0DmNRusK8OhL-5" value="APP-A" style="rounded=0;whiteSpace=wrap;html=1;" vertex="1" parent="1">
          <mxGeometry x="330" y="240" width="120" height="60" as="geometry" />
        </mxCell>
        <mxCell id="unOXCObY0DmNRusK8OhL-18" style="edgeStyle=orthogonalEdgeStyle;curved=1;rounded=0;orthogonalLoop=1;jettySize=auto;html=1;entryX=0.5;entryY=0;entryDx=0;entryDy=0;fillColor=#ffe6cc;strokeColor=#d79b00;strokeWidth=2;" edge="1" parent="1" source="unOXCObY0DmNRusK8OhL-6" target="unOXCObY0DmNRusK8OhL-9">
          <mxGeometry relative="1" as="geometry" />
        </mxCell>
        <mxCell id="unOXCObY0DmNRusK8OhL-6" value="APP-B" style="rounded=0;whiteSpace=wrap;html=1;" vertex="1" parent="1">
          <mxGeometry x="160" y="350" width="120" height="60" as="geometry" />
        </mxCell>
        <mxCell id="unOXCObY0DmNRusK8OhL-20" style="edgeStyle=orthogonalEdgeStyle;curved=1;rounded=0;orthogonalLoop=1;jettySize=auto;html=1;entryX=0.5;entryY=0;entryDx=0;entryDy=0;exitX=0.5;exitY=1;exitDx=0;exitDy=0;fillColor=#d5e8d4;strokeColor=#82b366;strokeWidth=2;" edge="1" parent="1" source="unOXCObY0DmNRusK8OhL-7" target="unOXCObY0DmNRusK8OhL-8">
          <mxGeometry relative="1" as="geometry" />
        </mxCell>
        <mxCell id="unOXCObY0DmNRusK8OhL-7" value="APP-C" style="rounded=0;whiteSpace=wrap;html=1;" vertex="1" parent="1">
          <mxGeometry x="500" y="350" width="120" height="60" as="geometry" />
        </mxCell>
        <mxCell id="unOXCObY0DmNRusK8OhL-19" style="edgeStyle=orthogonalEdgeStyle;curved=1;rounded=0;orthogonalLoop=1;jettySize=auto;html=1;entryX=0.5;entryY=0;entryDx=0;entryDy=0;fillColor=#d5e8d4;strokeColor=#82b366;strokeWidth=2;" edge="1" parent="1" source="unOXCObY0DmNRusK8OhL-8" target="unOXCObY0DmNRusK8OhL-10">
          <mxGeometry relative="1" as="geometry" />
        </mxCell>
        <mxCell id="unOXCObY0DmNRusK8OhL-21" style="edgeStyle=orthogonalEdgeStyle;curved=1;rounded=0;orthogonalLoop=1;jettySize=auto;html=1;entryX=0.5;entryY=0;entryDx=0;entryDy=0;exitX=0.5;exitY=1;exitDx=0;exitDy=0;fillColor=#dae8fc;strokeColor=#6c8ebf;strokeWidth=2;" edge="1" parent="1" source="unOXCObY0DmNRusK8OhL-8" target="unOXCObY0DmNRusK8OhL-11">
          <mxGeometry relative="1" as="geometry" />
        </mxCell>
        <mxCell id="unOXCObY0DmNRusK8OhL-22" style="edgeStyle=orthogonalEdgeStyle;curved=1;rounded=0;orthogonalLoop=1;jettySize=auto;html=1;entryX=0.5;entryY=0;entryDx=0;entryDy=0;strokeWidth=2;exitX=0.5;exitY=1;exitDx=0;exitDy=0;fillColor=#d5e8d4;strokeColor=#82b366;" edge="1" parent="1" source="unOXCObY0DmNRusK8OhL-8" target="unOXCObY0DmNRusK8OhL-9">
          <mxGeometry relative="1" as="geometry" />
        </mxCell>
        <mxCell id="unOXCObY0DmNRusK8OhL-8" value="APP-D" style="rounded=0;whiteSpace=wrap;html=1;" vertex="1" parent="1">
          <mxGeometry x="340" y="450" width="120" height="60" as="geometry" />
        </mxCell>
        <mxCell id="unOXCObY0DmNRusK8OhL-9" value="APP-E" style="rounded=0;whiteSpace=wrap;html=1;" vertex="1" parent="1">
          <mxGeometry x="150" y="585" width="120" height="60" as="geometry" />
        </mxCell>
        <mxCell id="unOXCObY0DmNRusK8OhL-10" value="APP-F" style="rounded=0;whiteSpace=wrap;html=1;" vertex="1" parent="1">
          <mxGeometry x="340" y="585" width="120" height="60" as="geometry" />
        </mxCell>
        <mxCell id="unOXCObY0DmNRusK8OhL-11" value="APP-G" style="rounded=0;whiteSpace=wrap;html=1;" vertex="1" parent="1">
          <mxGeometry x="530" y="585" width="120" height="60" as="geometry" />
        </mxCell>
      </root>
    </mxGraphModel>
  </diagram>
</mxfile>
